<?xml version="1.0" encoding="UTF-8" standalone="no"?>
<!-- Created with Inkscape (http://www.inkscape.org/) -->

<svg
   version="1.1"
   id="svg526"
   width="253.16479"
   height="253.00746"
   viewBox="0 0 253.1648 253.00746"
   xmlns="http://www.w3.org/2000/svg"
   xmlns:svg="http://www.w3.org/2000/svg">
  <defs
     id="defs530">
    <clipPath
       clipPathUnits="userSpaceOnUse"
       id="clipPath542">
      <path
         d="M 0,190 H 190 V 0 H 0 Z"
         id="path540" />
    </clipPath>
    <clipPath
       clipPathUnits="userSpaceOnUse"
       id="clipPath558">
      <path
         d="M 0,190 H 190 V 0 H 0 Z"
         id="path556" />
    </clipPath>
    <clipPath
       clipPathUnits="userSpaceOnUse"
       id="clipPath586">
      <path
         d="M 0,190 H 190 V 0 H 0 Z"
         id="path584" />
    </clipPath>
    <clipPath
       clipPathUnits="userSpaceOnUse"
       id="clipPath634">
      <path
         d="M 0,190 H 190 V 0 H 0 Z"
         id="path632" />
    </clipPath>
  </defs>
  <g
     id="g534"
     transform="matrix(1.3333333,0,0,-1.3333333,0,253.33333)">
    <g
       id="g536">
      <g
         id="g538"
         clip-path="url(#clipPath542)">
        <g
           id="g544"
           transform="translate(94.8736,190.2444)">
          <path
             d="m 0,0 c 52.467,0 95,-42.533 95,-95 0,-52.467 -42.533,-95 -95,-95 -52.467,0 -95,42.533 -95,95 0,52.467 42.533,95 95,95"
             style="fill:#00548c;fill-opacity:1;fill-rule:nonzero;stroke:none"
             id="path546" />
        </g>
        <g
           id="g548"
           transform="translate(95,6)">
          <path
             d="m 0,0 c -49.153,0 -89,39.847 -89,89 0,49.153 39.847,89 89,89 49.153,0 89,-39.847 89,-89 C 89,39.847 49.153,0 0,0 m 0,180 c -50.258,0 -91,-40.742 -91,-91 0,-50.258 40.742,-91 91,-91 50.258,0 91,40.742 91,91 0,50.258 -40.742,91 -91,91"
             style="fill:#ffffff;fill-opacity:1;fill-rule:nonzero;stroke:none"
             id="path550" />
        </g>
      </g>
    </g>
    <g
       id="g552">
      <g
         id="g554"
         clip-path="url(#clipPath558)">
        <g
           id="g560"
           transform="translate(52.9,85.8)">
          <path
             d="m 0,0 c -2.1,-2.5 -4.9,-4.2 -8.2,-4.9 -0.7,-0.1 -1.3,-0.2 -2,-0.2 h -1 -5.3 c -0.1,0.3 -0.4,0.5 -0.8,0.5 -0.5,0 -0.9,-0.4 -0.9,-0.9 0,-0.5 0.4,-0.9 0.9,-0.9 0.3,0 0.6,0.2 0.8,0.5 h 5.3 v -2.6 h -8.9 v 31.1 h 9.3 0.1 c 3.1,0 5.8,-1 8.3,-2.8 C 0.3,17.8 2.1,15.2 2.9,12 3.8,7.6 2.9,3.5 0,0 M -20.9,23 V -8.5 h -2.5 V 8.8 c 0,0.2 -0.2,0.4 -0.4,0.4 h -3.4 v 20.3 h 16 v -6.1 h -9.3 c -0.2,0 -0.4,-0.2 -0.4,-0.4 m 67.1,6.4 H 8.5 c -0.1,0.3 -0.4,0.5 -0.8,0.5 -0.5,0 -0.9,-0.4 -0.9,-0.9 0,-0.5 0.4,-0.9 0.9,-0.9 0.3,0 0.6,0.2 0.8,0.5 H 45.8 V 21.5 H 27.7 c -0.2,0 -0.4,-0.2 -0.4,-0.4 v -32.7 h -3.4 v 36.2 h 18.2 c 0.1,-0.3 0.4,-0.5 0.8,-0.5 0.5,0 0.9,0.4 0.9,0.9 0,0.5 -0.4,0.9 -0.9,0.9 -0.3,0 -0.6,-0.2 -0.8,-0.5 H 2.9 c -3.7,3 -7.9,4.7 -12.7,4.9 h -1.3 -16.5 c -0.2,0 -0.4,-0.2 -0.4,-0.4 V 8.8 c 0,-0.2 0.2,-0.4 0.4,-0.4 h 3.4 V -8.8 c 0,-0.2 0.2,-0.4 0.4,-0.4 h 12.6 v -2.7 h -16 V 4.6 c 0.3,0.1 0.5,0.4 0.5,0.8 0,0.5 -0.4,0.9 -0.9,0.9 -0.5,0 -0.9,-0.4 -0.9,-0.9 0,-0.3 0.2,-0.6 0.5,-0.8 v -17 c 0,-0.2 0.2,-0.4 0.4,-0.4 h 16.4 0.1 1.6 c 1.8,0 3.7,0.5 5.5,1 2.7,0.8 5.1,2.2 7.2,4 2.2,1.9 4.2,3.9 5.4,6.6 0.6,1.2 1.3,2.3 1.7,3.7 0.6,2.4 0.9,4.8 0.8,7.2 -0.1,2.9 -0.7,5.6 -2,8.2 -0.3,0.7 -0.7,1.4 -1.2,2.1 l -0.2,0.4 c 0,-0.2 0.2,-0.2 0.4,-0.2 0.4,0 0.7,0.2 0.9,0.5 h 10.1 v -31.5 c -0.3,-0.1 -0.5,-0.5 -0.5,-0.9 0,-0.5 0.4,-0.9 0.9,-0.9 0.5,0 0.9,0.4 0.9,0.9 0,0.4 -0.2,0.7 -0.5,0.9 v 31.9 c 0,0.2 -0.2,0.4 -0.4,0.4 H 8.9 C 8.8,21.8 8.4,22 8,22 7.5,22 7.1,21.6 7.1,21.1 v -0.2 0.2 C 6.2,22.3 5.3,23.3 4.2,24.3 L 3.9,24.6 H 23.2 V -12 c 0,-0.2 0.2,-0.4 0.4,-0.4 h 4.2 c 0.2,0 0.4,0.2 0.4,0.4 v 32.7 h 18.1 c 0.2,0 0.4,0.2 0.4,0.4 V 29 c -0.1,0.2 -0.2,0.4 -0.5,0.4"
             style="fill:#ffffff;fill-opacity:1;fill-rule:evenodd;stroke:none"
             id="path562" />
        </g>
        <g
           id="g564"
           transform="translate(109.9,74.5)">
          <path
             d="m 0,0 c -0.3,0 -0.6,-0.2 -0.8,-0.5 h -6.1 v 15.8 c 0.3,0.1 0.5,0.4 0.5,0.8 0,0.5 -0.4,0.9 -0.9,0.9 -0.5,0 -0.9,-0.4 -0.9,-0.9 0,-0.3 0.2,-0.6 0.5,-0.8 V -0.9 c 0,-0.2 0.2,-0.4 0.4,-0.4 h 6.5 c 0.1,-0.3 0.4,-0.5 0.8,-0.5 0.5,0 0.9,0.4 0.9,0.9 C 0.9,-0.4 0.5,0 0,0"
             style="fill:#ffffff;fill-opacity:1;fill-rule:evenodd;stroke:none"
             id="path566" />
        </g>
        <g
           id="g568"
           transform="translate(125.1,100)">
          <path
             d="m 0,0 c -1.3,-1.1 -2.9,-1.6 -4.6,-1.6 h -3.1 -6.6 V 7 h 3.2 c 0.1,-0.3 0.4,-0.5 0.8,-0.5 0.5,0 0.9,0.4 0.9,0.9 0,0.5 -0.4,0.9 -0.9,0.9 -0.3,0 -0.6,-0.2 -0.8,-0.5 h -3.5 C -14.8,7.8 -15,7.6 -15,7.4 V -2 c 0,-0.2 0.2,-0.4 0.4,-0.4 h 7 V -9 h -7 c -0.2,0 -0.4,-0.2 -0.4,-0.4 v -12.8 h -3.1 v 16 h 7 c 0.1,-0.3 0.4,-0.5 0.8,-0.5 0.5,0 0.9,0.4 0.9,0.9 0,0.5 -0.4,0.9 -0.9,0.9 -0.3,0 -0.6,-0.2 -0.8,-0.5 h -11 v 19.9 h 14.5 v -3 h -11.1 c -0.2,0 -0.4,-0.2 -0.4,-0.4 V -0.8 c -0.3,-0.1 -0.5,-0.4 -0.5,-0.8 0,-0.5 0.4,-0.9 0.9,-0.9 0.5,0 0.9,0.4 0.9,0.9 0,0.3 -0.2,0.6 -0.5,0.8 V 10.7 H -7.6 V 7 h 3.1 C -2.7,6.9 -1,6.4 0.3,5 1.6,3.7 1.5,1.2 0,0 m 6.4,-16.5 c -1.4,2.4 -2.8,4.7 -4.2,7.1 -0.7,1.1 -0.6,1.1 0.6,1.7 2.4,1.2 4.4,2.7 5.6,5.1 1.8,3.4 1.8,6.8 0.1,10.2 -0.9,1.8 -2.2,3.3 -3.8,4.5 -1.8,1.4 -4.6,2.7 -8.2,2.9 -1.3,0.1 -2.7,0.1 -4,0.1 h -0.1 -14.9 c -0.2,0 -0.4,-0.2 -0.4,-0.4 V -5.9 c 0,-0.2 0.2,-0.4 0.4,-0.4 h 3.5 v -16.4 c 0,-0.2 0.2,-0.4 0.4,-0.4 h 3.9 c 0.2,0 0.4,0.2 0.4,0.4 v 12.9 h 6.7 0.3 c 0.2,0 0.4,-0.1 0.5,-0.3 0.5,-0.8 1,-1.6 1.5,-2.4 0.8,-1.3 1.5,-2.6 2.2,-3.9 0.9,-1.4 1.8,-2.8 2.6,-4.3 1.2,-1.9 2.3,-3.9 3.5,-5.8 0.1,-0.2 0.4,-0.3 0.7,-0.3 h 7 1.7 c -0.7,1.1 -1.3,2.1 -1.9,3.1 -1.2,2.4 -2.7,4.8 -4.1,7.2"
             style="fill:#ffffff;fill-opacity:1;fill-rule:evenodd;stroke:none"
             id="path570" />
        </g>
        <g
           id="g572"
           transform="translate(154.5,112.2)">
          <path
             d="m 0,0 c -0.3,0 -0.6,-0.2 -0.8,-0.5 h -10.6 c -0.2,0 -0.4,-0.2 -0.4,-0.4 v -12.5 c -0.3,-0.1 -0.5,-0.4 -0.5,-0.8 0,-0.5 0.4,-0.9 0.9,-0.9 0.5,0 0.9,0.4 0.9,0.9 0,0.3 -0.2,0.6 -0.5,0.8 v 12.2 h 10.2 c 0.1,-0.3 0.4,-0.5 0.8,-0.5 0.5,0 0.9,0.4 0.9,0.9 C 0.9,-0.4 0.5,0 0,0"
             style="fill:#ffffff;fill-opacity:1;fill-rule:evenodd;stroke:none"
             id="path574" />
        </g>
        <g
           id="g576"
           transform="translate(146.5,108.7)">
          <path
             d="m 0,0 c -0.2,0 -0.4,-0.2 -0.4,-0.4 v -10.7 c 0,-0.2 0.2,-0.4 0.4,-0.4 h 10.4 v -5.8 H -0.1 c -0.2,0 -0.4,-0.2 -0.4,-0.4 V -31.3 H -3 v 16.5 H 7.5 c 0.1,-0.3 0.4,-0.5 0.8,-0.5 0.5,0 0.9,0.4 0.9,0.9 0,0.5 -0.4,0.9 -0.9,0.9 -0.3,0 -0.6,-0.2 -0.8,-0.5 H -6.4 V 5.9 H 10.4 V 0.1 H 0 Z M 23.8,-0.7 V 6.7 H 10.5 -6.8 C -7,6.7 -7.2,6.5 -7.2,6.3 v -20.6 c 0,-0.2 0.2,-0.4 0.4,-0.4 h 3 v -17 c 0,-0.2 0.2,-0.4 0.4,-0.4 h 13.8 v -2.7 H -6.5 v 17 c 0.3,0.1 0.5,0.4 0.5,0.8 0,0.5 -0.4,0.9 -0.9,0.9 -0.5,0 -0.9,-0.4 -0.9,-0.9 0,-0.3 0.2,-0.6 0.5,-0.8 v -17.3 c 0,-0.2 0.2,-0.4 0.4,-0.4 h 17.3 13.3 v 7.4 H 10.4 3.5 c -0.1,0.3 -0.4,0.5 -0.8,0.5 -0.5,0 -0.9,-0.4 -0.9,-0.9 0,-0.5 0.4,-0.9 0.9,-0.9 0.3,0 0.6,0.2 0.8,0.5 h 6.9 v -2.3 H 0.3 v 13.1 h 10.2 13.2 v 7.4 H 10.5 10.4 0.4 v 10 h 10 z"
             style="fill:#ffffff;fill-opacity:1;fill-rule:evenodd;stroke:none"
             id="path578" />
        </g>
      </g>
    </g>
    <g
       id="g580">
      <g
         id="g582"
         clip-path="url(#clipPath586)">
        <g
           id="g588"
           transform="translate(132.2392,17.9217)">
          <path
             d="m 0,0 c -4.041,-0.734 -7.99,2.017 -8.633,6.144 -0.734,4.034 2.021,7.977 6.153,8.619 C 1.561,15.497 5.51,12.746 6.153,8.619 6.796,4.493 4.133,0.642 0,0 m -2.725,16.239 c -4.96,-0.77 -8.266,-5.501 -7.384,-10.343 0.771,-4.952 5.51,-8.253 10.359,-7.372 4.96,0.77 8.156,5.391 7.384,10.343 -0.771,4.952 -5.51,8.253 -10.359,7.372"
             style="fill:#ffffff;fill-opacity:1;fill-rule:nonzero;stroke:none"
             id="path590" />
        </g>
        <g
           id="g592"
           transform="translate(137.8364,47.1343)">
          <path
             d="m 0,0 c -2.572,-0.803 -5.364,0.67 -6.115,3.305 -0.803,2.567 0.673,5.356 3.312,6.107 2.572,0.803 5.364,-0.67 6.115,-3.305 C 4.063,3.472 2.639,0.751 0,0 m -3.082,10.353 c -3.166,-0.9 -4.938,-4.247 -3.974,-7.328 0.901,-3.162 4.252,-4.929 7.338,-3.966 3.166,0.901 4.875,4.167 3.974,7.328 -0.901,3.162 -4.251,4.93 -7.338,3.966"
             style="fill:#ffffff;fill-opacity:1;fill-rule:nonzero;stroke:none"
             id="path594" />
        </g>
        <g
           id="g596"
           transform="translate(146.6102,49.8745)">
          <path
             d="m 0,0 -0.993,-0.247 -0.498,0.03 -0.108,0.014 -0.004,0.001 -0.634,0.164 c -0.003,-0.009 -0.004,-0.018 -0.007,-0.027 -0.148,-0.58 -0.352,-1.139 -0.619,-1.666 -0.005,-0.01 -0.01,-0.021 -0.016,-0.032 l 0.59,-0.289 0.097,-0.047 0.394,-0.302 0.586,-0.839 -0.185,-0.306 -1.016,0.129 -0.453,0.208 -0.095,0.052 -0.006,0.004 -0.533,0.382 C -3.505,-2.778 -3.509,-2.784 -3.514,-2.791 -3.86,-3.276 -4.255,-3.725 -4.699,-4.125 -4.707,-4.132 -4.713,-4.14 -4.721,-4.147 l 0.444,-0.481 0.077,-0.084 0.259,-0.423 0.243,-0.995 -0.283,-0.217 -0.901,0.487 -0.347,0.357 -0.07,0.083 -0.003,0.004 -0.359,0.549 C -5.668,-4.872 -5.676,-4.876 -5.683,-4.881 -6.176,-5.206 -6.708,-5.479 -7.273,-5.693 -7.282,-5.697 -7.29,-5.7 -7.299,-5.704 l 0.241,-0.609 0.042,-0.109 0.089,-0.488 -0.133,-1.015 -0.342,-0.101 -0.664,0.779 -0.195,0.459 -0.035,0.103 -0.001,10e-4 -0.136,0.641 c -0.01,-0.002 -0.02,-0.003 -0.029,-0.005 -0.235,-0.05 -0.472,-0.095 -0.715,-0.125 -0.356,-0.044 -0.708,-0.057 -1.058,-0.055 -0.009,0 -0.019,10e-4 -0.028,10e-4 l 0.004,-0.656 v -0.116 l -0.094,-0.488 -0.49,-0.898 -0.356,0.029 -0.337,0.967 -0.016,0.498 0.004,0.109 v 0.002 l 0.105,0.648 c -0.01,10e-4 -0.02,0.002 -0.03,0.004 -0.592,0.094 -1.167,0.246 -1.714,0.462 -0.011,0.004 -0.022,0.01 -0.033,0.015 l -0.234,-0.614 -0.039,-0.102 -0.264,-0.42 -0.781,-0.661 -0.321,0.156 0.034,1.023 0.165,0.47 0.043,0.1 0.004,0.007 0.331,0.565 c -0.007,0.004 -0.014,0.008 -0.021,0.012 -0.516,0.301 -0.999,0.652 -1.438,1.056 -0.007,0.008 -0.016,0.014 -0.024,0.021 l -0.438,-0.487 -0.075,-0.083 -0.398,-0.297 -0.968,-0.334 -0.243,0.262 0.402,0.941 0.324,0.379 0.076,0.078 0.005,0.003 0.512,0.408 c -0.005,0.007 -0.01,0.014 -0.015,0.02 -0.371,0.463 -0.693,0.967 -0.958,1.508 -0.004,0.008 -0.009,0.017 -0.013,0.025 l -0.585,-0.295 -0.103,-0.053 -0.478,-0.133 -1.023,0.039 -0.132,0.332 0.715,0.732 0.439,0.236 0.099,0.045 0.003,0.001 0.625,0.196 c -0.002,0.008 -0.004,0.017 -0.007,0.026 -0.146,0.465 -0.258,0.947 -0.32,1.448 -0.012,0.102 -0.013,0.204 -0.022,0.306 -0.001,0.008 -0.001,0.017 -0.002,0.025 l -0.652,-0.064 -0.119,-0.012 -0.494,0.049 -0.94,0.405 -0.003,0.357 0.931,0.425 0.494,0.062 0.109,0.006 h 0.002 l 0.655,-0.044 c 0,0.01 0,0.02 10e-4,0.03 0.038,0.6 0.14,1.186 0.304,1.749 0.003,0.011 0.008,0.022 0.012,0.034 l -0.633,0.175 -0.106,0.03 -0.443,0.224 -0.73,0.717 0.126,0.334 1.022,0.06 0.483,-0.121 0.104,-0.033 0.005,-0.003 0.594,-0.277 c 0.004,0.008 0.007,0.016 0.011,0.023 0.252,0.541 0.556,1.054 0.917,1.526 0.007,0.009 0.012,0.019 0.019,0.027 l -0.525,0.392 -0.089,0.066 -0.332,0.369 -0.422,0.933 0.238,0.266 0.975,-0.313 0.407,-0.288 0.084,-0.068 0.005,-0.005 0.453,-0.473 c 0.006,0.006 0.012,0.012 0.018,0.018 0.428,0.412 0.899,0.78 1.411,1.093 0.009,0.005 0.017,0.011 0.025,0.016 l -0.348,0.555 -0.061,0.097 -0.177,0.464 -0.055,1.022 0.318,0.162 0.795,-0.644 0.276,-0.415 0.054,-0.094 10e-4,-0.004 0.252,-0.605 c 0.009,0.003 0.017,0.006 0.025,0.01 0.543,0.227 1.116,0.395 1.716,0.502 0.008,0.002 0.016,0.003 0.024,0.004 l -0.124,0.644 -0.023,0.117 0.003,0.497 0.317,0.973 0.355,0.036 0.51,-0.888 0.107,-0.486 0.016,-0.108 v 0 l 0.016,-0.656 c 0.011,0 0.022,0.002 0.033,0.002 0.603,0.017 1.194,-0.035 1.768,-0.146 0.011,-0.002 0.022,-0.005 0.033,-0.007 l 0.117,0.645 0.02,0.111 0.182,0.462 0.647,0.793 0.344,-0.095 0.154,-1.012 -0.076,-0.492 -0.024,-0.106 -0.001,-0.005 -0.222,-0.617 c 0.009,-0.003 0.017,-0.006 0.026,-0.009 0.563,-0.201 1.101,-0.457 1.603,-0.772 0.01,-0.006 0.02,-0.011 0.03,-0.017 l 0.341,0.559 0.057,0.094 0.337,0.365 0.89,0.506 0.287,-0.213 L -4.107,9.205 -4.356,8.773 -4.416,8.683 -4.421,8.677 -4.85,8.182 C -4.844,8.177 -4.838,8.171 -4.832,8.166 -4.381,7.778 -3.971,7.343 -3.613,6.863 -3.606,6.855 -3.6,6.847 -3.594,6.839 l 0.521,0.398 0.09,0.069 0.446,0.219 1.012,0.15 L -1.334,7.373 -1.902,6.521 -2.29,6.209 -2.379,6.146 -2.383,6.144 -2.962,5.837 c 0.004,-0.008 0.008,-0.016 0.012,-0.024 0.277,-0.52 0.499,-1.075 0.66,-1.66 0.003,-0.008 0.005,-0.017 0.007,-0.025 l 0.63,0.183 0.113,0.033 0.495,0.043 L -0.047,4.161 0.022,3.811 -0.815,3.222 -1.29,3.071 -1.393,3.045 H -1.395 L -2.044,2.968 C -2.043,2.957 -2.043,2.947 -2.042,2.936 -1.97,2.333 -1.97,1.739 -2.027,1.159 -2.028,1.148 -2.03,1.138 -2.031,1.128 l 0.654,-0.057 0.113,-0.01 0.477,-0.138 0.849,-0.572 z m -1.159,1.708 -0.181,0.01 c 0.006,0.231 0.005,0.463 -0.007,0.698 L -1.163,2.429 -0.518,2.633 0.744,3.525 0.51,4.703 -0.99,5.044 -1.676,4.985 -1.842,4.931 c -0.079,0.22 -0.162,0.439 -0.256,0.65 l 0.159,0.075 0.527,0.423 0.855,1.288 L -1.201,8.381 -2.723,8.157 -3.341,7.855 -3.475,7.745 C -3.627,7.922 -3.79,8.088 -3.956,8.252 l 0.126,0.133 0.339,0.584 0.332,1.51 -0.967,0.713 -1.338,-0.758 -0.467,-0.506 -0.087,-0.154 c -0.205,0.11 -0.416,0.208 -0.63,0.302 l 0.07,0.17 0.105,0.668 -0.236,1.528 -1.159,0.315 -0.974,-1.19 -0.253,-0.64 -0.026,-0.179 c -0.23,0.028 -0.462,0.047 -0.696,0.056 l 0.004,0.185 -0.143,0.661 -0.772,1.339 -1.195,-0.125 -0.478,-1.461 -0.005,-0.689 0.04,-0.174 c -0.227,-0.057 -0.453,-0.117 -0.672,-0.191 l -0.06,0.165 -0.372,0.564 -1.204,0.97 -1.069,-0.548 0.082,-1.535 0.245,-0.644 0.095,-0.141 c -0.19,-0.136 -0.371,-0.284 -0.549,-0.434 l -0.119,0.136 -0.551,0.392 -1.472,0.47 -0.8,-0.897 0.632,-1.403 0.46,-0.511 0.145,-0.101 C -17.703,6.638 -17.82,6.437 -17.933,6.233 l -0.163,0.086 -0.655,0.165 -1.543,-0.093 -0.421,-1.125 1.095,-1.08 0.614,-0.311 0.174,-0.042 C -18.881,3.606 -18.92,3.377 -18.951,3.145 l -0.184,0.021 -0.671,-0.082 -1.404,-0.645 0.014,-1.201 1.411,-0.611 0.685,-0.068 0.18,0.024 c 0.037,-0.232 0.076,-0.462 0.13,-0.687 l -0.174,-0.045 -0.596,-0.319 -1.077,-1.109 0.447,-1.115 1.536,-0.06 0.664,0.184 0.15,0.083 c 0.117,-0.203 0.246,-0.397 0.378,-0.589 l -0.145,-0.104 -0.441,-0.513 -0.603,-1.423 0.819,-0.878 1.455,0.499 0.552,0.411 0.113,0.135 c 0.182,-0.146 0.372,-0.281 0.564,-0.411 l -0.1,-0.155 -0.226,-0.638 -0.049,-1.544 1.082,-0.523 1.176,0.991 0.366,0.582 0.057,0.169 c 0.222,-0.07 0.448,-0.129 0.676,-0.182 l -0.038,-0.18 0.02,-0.675 0.512,-1.459 1.198,-0.097 0.738,1.349 0.131,0.676 -0.007,0.182 c 0.172,0.011 0.343,0.016 0.516,0.038 0.061,0.007 0.118,0.022 0.178,0.031 l 0.03,-0.181 0.263,-0.623 1.004,-1.174 1.152,0.342 0.201,1.524 -0.122,0.678 -0.069,0.158 c 0.213,0.099 0.42,0.205 0.622,0.319 l 0.091,-0.153 0.469,-0.486 1.361,-0.732 0.951,0.735 -0.363,1.494 -0.359,0.588 -0.123,0.124 c 0.162,0.168 0.314,0.345 0.462,0.525 l 0.144,-0.114 0.614,-0.283 1.533,-0.191 0.621,1.028 -0.878,1.262 -0.547,0.419 -0.162,0.073 c 0.09,0.214 0.17,0.433 0.243,0.655 l 0.176,-0.055 0.675,-0.042 1.499,0.375 0.207,1.184 -1.275,0.859 z"
             style="fill:#ffffff;fill-opacity:1;fill-rule:nonzero;stroke:none"
             id="path598" />
        </g>
        <g
           id="g600"
           transform="translate(162.5889,40.2242)">
          <path
             d="m 0,0 c -3.615,-0.656 -7.147,1.805 -7.722,5.496 -0.658,3.609 1.807,7.136 5.504,7.71 C 1.397,13.863 4.929,11.402 5.504,7.711 6.079,4.019 3.697,0.574 0,0 m 6.829,7.932 c -0.69,4.429 -4.929,7.382 -9.267,6.595 -4.436,-0.689 -7.394,-4.922 -6.605,-9.253 0.69,-4.429 4.929,-7.382 9.267,-6.595 0.563,0.088 1.099,0.232 1.607,0.423 1.802,2.243 3.496,4.575 5.077,6.989 0.038,0.602 0.018,1.218 -0.079,1.841"
             style="fill:#ffffff;fill-opacity:1;fill-rule:nonzero;stroke:none"
             id="path602" />
        </g>
        <g
           id="g604"
           transform="translate(171.6421,53.7606)">
          <path
             d="m 0,0 -0.198,-0.128 c -0.179,0.263 -0.375,0.514 -0.574,0.761 l 0.191,0.16 0.549,0.741 L 0.649,3.528 -0.552,4.642 -2.481,3.82 -3.192,3.206 -3.333,3.01 C -3.595,3.19 -3.865,3.357 -4.141,3.516 L -4.02,3.736 -3.775,4.625 -3.861,6.731 -5.383,7.336 -6.885,5.873 -7.326,5.044 -7.388,4.806 c -0.308,0.073 -0.619,0.133 -0.935,0.182 l 0.034,0.25 -0.094,0.917 -0.84,1.933 -1.638,0.014 -0.872,-1.907 -0.112,-0.932 0.028,-0.242 c -0.317,-0.044 -0.632,-0.09 -0.941,-0.157 l -0.055,0.233 -0.419,0.821 -1.482,1.499 -1.532,-0.578 -0.124,-2.094 0.233,-0.909 0.107,-0.206 c -0.278,-0.155 -0.546,-0.328 -0.81,-0.503 l -0.141,0.202 -0.686,0.615 -1.924,0.862 -1.22,-1.093 0.641,-1.997 0.546,-0.764 0.181,-0.158 C -19.647,0.55 -19.836,0.296 -20.02,0.036 l -0.208,0.142 -0.863,0.325 -2.105,0.109 -0.742,-1.46 1.318,-1.63 0.785,-0.516 0.229,-0.083 c -0.101,-0.3 -0.189,-0.605 -0.267,-0.915 l -0.245,0.057 -0.922,-0.009 -2.002,-0.658 -0.165,-1.63 1.818,-1.044 0.918,-0.197 0.248,0.005 c 0.014,-0.32 0.032,-0.638 0.071,-0.95 l -0.243,-0.035 -0.856,-0.341 -1.629,-1.337 0.434,-1.58 2.073,-0.316 0.927,0.147 0.216,0.089 c 0.129,-0.292 0.273,-0.575 0.423,-0.855 l -0.212,-0.12 -0.676,-0.627 -1.036,-1.835 0.976,-1.316 2.047,0.454 0.811,0.472 0.174,0.165 c 0.225,-0.225 0.461,-0.436 0.702,-0.643 l -0.16,-0.195 -0.403,-0.829 -0.303,-2.085 1.385,-0.875 1.745,1.163 0.586,0.734 0.104,0.22 c 0.29,-0.129 0.586,-0.244 0.887,-0.35 l -0.078,-0.238 -0.077,-0.919 0.471,-2.054 0.263,-0.052 c 0.25,0.251 0.494,0.507 0.741,0.761 l -0.269,0.053 -0.309,1.361 0.055,0.678 0.021,0.146 10e-4,0.004 0.241,0.861 c -0.013,0.004 -0.026,0.006 -0.039,0.01 -0.788,0.218 -1.544,0.512 -2.252,0.888 -0.015,0.008 -0.028,0.018 -0.043,0.026 l -0.411,-0.795 -0.068,-0.133 -0.422,-0.529 -1.16,-0.776 -0.411,0.261 0.203,1.381 0.296,0.612 0.073,0.129 0.006,0.008 0.535,0.715 c -0.009,0.007 -0.018,0.013 -0.027,0.02 -0.652,0.486 -1.253,1.036 -1.785,1.651 -0.01,0.011 -0.02,0.021 -0.03,0.031 l -0.669,-0.592 -0.114,-0.102 -0.585,-0.341 -1.362,-0.304 -0.289,0.392 0.688,1.214 0.497,0.464 0.115,0.093 0.007,0.005 0.758,0.474 c -0.007,0.01 -0.013,0.019 -0.019,0.029 -0.431,0.684 -0.79,1.416 -1.066,2.189 -0.005,0.012 -0.01,0.024 -0.014,0.037 l -0.838,-0.311 -0.148,-0.055 -0.668,-0.107 -1.38,0.209 -0.128,0.469 1.08,0.884 0.631,0.253 0.141,0.045 0.004,0.001 0.878,0.169 c -0.002,0.012 -0.004,0.025 -0.006,0.037 -0.126,0.652 -0.204,1.322 -0.211,2.01 -0.002,0.141 0.013,0.279 0.016,0.419 0.001,0.011 0.001,0.023 0.002,0.034 l -0.894,0.013 -0.163,0.002 -0.662,0.142 -1.211,0.693 0.05,0.484 1.327,0.434 0.679,0.007 0.148,-0.008 h 0.003 l 0.88,-0.16 c 0.003,0.013 0.004,0.027 0.006,0.041 0.145,0.807 0.372,1.585 0.68,2.322 0.007,0.015 0.015,0.029 0.021,0.045 l -0.83,0.335 -0.139,0.056 -0.566,0.371 -0.879,1.084 0.221,0.433 1.394,-0.075 0.637,-0.238 0.135,-0.061 0.007,-0.004 0.762,-0.467 c 0.006,0.01 0.012,0.02 0.018,0.03 0.424,0.695 0.916,1.343 1.477,1.927 0.01,0.011 0.019,0.023 0.03,0.034 l -0.652,0.611 -0.11,0.104 -0.394,0.55 -0.428,1.329 0.363,0.324 1.273,-0.574 0.507,-0.452 0.104,-0.105 0.005,-0.007 0.542,-0.711 c 0.009,0.007 0.018,0.014 0.027,0.021 0.643,0.493 1.338,0.92 2.08,1.266 0.012,0.005 0.024,0.012 0.036,0.018 l -0.387,0.805 -0.067,0.141 -0.169,0.656 0.081,1.393 0.456,0.171 0.979,-0.995 0.31,-0.604 0.059,-0.136 0.001,-0.006 0.249,-0.858 c 0.012,0.003 0.024,0.006 0.036,0.009 0.769,0.225 1.572,0.365 2.401,0.419 0.011,0 0.022,10e-4 0.034,0.002 l -0.07,0.89 -0.013,0.163 0.08,0.673 0.579,1.27 0.486,-0.006 0.554,-1.281 0.071,-0.676 0.005,-0.148 v 0 L -9.254,4.207 c 0.015,-0.002 0.03,-10e-4 0.044,-0.002 0.82,-0.07 1.614,-0.231 2.375,-0.469 0.014,-0.004 0.028,-0.01 0.043,-0.015 l 0.257,0.857 0.044,0.146 0.317,0.598 0.998,0.976 L -4.724,6.117 -4.67,4.722 -4.848,4.066 -4.897,3.926 -4.9,3.92 -5.294,3.118 c 0.011,-0.006 0.022,-0.01 0.033,-0.016 0.732,-0.359 1.423,-0.788 2.054,-1.291 0.012,-0.01 0.026,-0.018 0.038,-0.028 l 0.548,0.706 0.092,0.118 0.512,0.443 1.283,0.549 L -0.378,3.267 -0.831,1.947 -1.234,1.4 -1.33,1.287 -1.338,1.28 -1.995,0.675 c 0.008,-0.008 0.015,-0.016 0.023,-0.025 0.551,-0.595 1.04,-1.247 1.452,-1.952 0.007,-0.012 0.015,-0.024 0.022,-0.036 l 0.767,0.46 0.133,0.08 0.637,0.228 0.919,0.032 c 0.16,0.299 0.313,0.603 0.469,0.905 L 0.884,0.316 Z"
             style="fill:#ffffff;fill-opacity:1;fill-rule:nonzero;stroke:none"
             id="path606" />
        </g>
        <g
           id="g608"
           transform="translate(171.8601,50.9349)">
          <path
             d="M 0,0 C 0.067,-0.169 0.114,-0.347 0.173,-0.52 0.33,-0.249 0.49,0.02 0.645,0.293 L -0.013,0.034 C -0.008,0.023 -0.004,0.011 0,0"
             style="fill:#ffffff;fill-opacity:1;fill-rule:nonzero;stroke:none"
             id="path610" />
        </g>
        <g
           id="g612"
           transform="translate(160.1066,35.7396)">
          <path
             d="m 0,0 -0.095,-0.889 -0.017,-0.158 -0.202,-0.646 -0.135,-0.192 c 0.56,0.592 1.111,1.192 1.655,1.799 C 0.812,-0.077 0.423,-0.051 0.038,-0.005 0.026,-0.004 0.013,-0.002 0,0"
             style="fill:#ffffff;fill-opacity:1;fill-rule:nonzero;stroke:none"
             id="path614" />
        </g>
        <g
           id="g616"
           transform="translate(144.5917,23.2272)">
          <path
             d="m 0,0 -0.272,0.048 c 0.052,0.349 0.094,0.701 0.119,1.058 L 0.129,1.091 1.142,1.279 3.219,2.392 3.085,4.219 0.88,5.015 -0.169,5.054 -0.431,5.003 C -0.508,5.351 -0.593,5.697 -0.697,6.035 L -0.442,6.119 0.435,6.66 1.969,8.448 1.184,10.103 -1.16,10.049 -2.152,9.707 -2.374,9.566 c -0.198,0.296 -0.413,0.579 -0.633,0.857 l 0.215,0.177 0.622,0.821 0.785,2.222 -1.329,1.259 -2.166,-0.896 -0.802,-0.678 -0.161,-0.217 c -0.29,0.204 -0.59,0.393 -0.896,0.575 l 0.138,0.245 0.283,0.99 -0.07,2.355 -1.695,0.695 -1.696,-1.619 -0.502,-0.921 -0.073,-0.265 c -0.343,0.085 -0.69,0.156 -1.043,0.214 l 0.041,0.279 -0.094,1.027 -0.917,2.17 -1.831,0.035 -0.996,-2.122 -0.136,-1.04 0.028,-0.271 c -0.355,-0.045 -0.708,-0.093 -1.053,-0.164 l -0.06,0.261 -0.458,0.923 -1.639,1.693 -1.72,-0.629 -0.163,-2.339 0.25,-1.019 0.118,-0.232 c -0.314,-0.17 -0.615,-0.359 -0.913,-0.553 l -0.154,0.228 -0.76,0.696 -2.14,0.986 -1.377,-1.208 0.693,-2.239 0.601,-0.861 0.2,-0.179 c -0.23,-0.27 -0.445,-0.552 -0.653,-0.839 l -0.231,0.16 -0.961,0.374 -2.351,0.146 -0.848,-1.623 1.455,-1.838 0.872,-0.585 0.255,-0.096 c -0.117,-0.334 -0.219,-0.674 -0.309,-1.02 l -0.274,0.066 -1.031,0.002 -2.245,-0.713 -0.204,-1.82 2.021,-1.188 1.023,-0.231 0.277,0.003 c 0.012,-0.358 0.029,-0.714 0.068,-1.063 l -0.271,-0.037 -0.962,-0.37 -1.837,-1.476 0.468,-1.771 2.313,-0.378 1.038,0.154 0.243,0.097 c 0.14,-0.328 0.298,-0.647 0.463,-0.961 l -0.24,-0.131 -0.762,-0.693 -1.18,-2.04 1.076,-1.482 2.294,0.483 0.912,0.519 0.196,0.183 c 0.248,-0.255 0.51,-0.494 0.777,-0.728 l -0.181,-0.216 -0.461,-0.922 -0.363,-2.327 1.539,-0.994 1.964,1.279 0.663,0.813 0.119,0.245 c 0.322,-0.148 0.652,-0.279 0.987,-0.402 l -0.09,-0.265 -0.069,-0.73 c 0.345,0.129 0.69,0.259 1.033,0.392 l 0.012,0.136 0.026,0.163 0.001,0.004 0.279,0.96 c -0.014,0.004 -0.029,0.007 -0.043,0.011 -0.878,0.253 -1.72,0.591 -2.507,1.02 -0.016,0.009 -0.032,0.02 -0.048,0.029 l -0.468,-0.884 -0.078,-0.147 -0.478,-0.587 -1.306,-0.853 -0.456,0.296 0.243,1.541 0.338,0.681 0.083,0.143 0.007,0.009 0.607,0.794 c -0.01,0.007 -0.02,0.014 -0.03,0.022 -0.724,0.551 -1.389,1.173 -1.977,1.866 -0.01,0.013 -0.022,0.024 -0.032,0.036 l -0.755,-0.655 -0.129,-0.112 -0.658,-0.375 -1.526,-0.323 -0.319,0.441 0.784,1.349 0.561,0.512 0.13,0.104 0.007,0.005 0.853,0.521 c -0.007,0.011 -0.014,0.022 -0.02,0.033 -0.474,0.769 -0.867,1.591 -1.167,2.459 -0.005,0.014 -0.01,0.028 -0.015,0.041 l -0.94,-0.337 -0.166,-0.06 -0.748,-0.112 -1.541,0.25 -0.137,0.526 1.218,0.975 0.708,0.275 0.158,0.05 0.005,0.001 0.983,0.178 c -0.002,0.014 -0.003,0.028 -0.006,0.041 -0.133,0.731 -0.213,1.481 -0.213,2.25 0,0.158 0.018,0.311 0.024,0.468 0,0.012 10e-4,0.025 0.002,0.038 l -0.999,0.025 -0.182,0.004 -0.738,0.166 -1.347,0.789 0.062,0.541 1.489,0.469 0.759,0.001 0.165,-0.011 0.004,-10e-4 0.982,-0.189 c 0.003,0.015 0.004,0.031 0.007,0.046 0.171,0.9 0.434,1.767 0.787,2.588 0.008,0.017 0.017,0.033 0.024,0.049 l -0.924,0.385 -0.154,0.064 -0.629,0.422 -0.97,1.222 0.253,0.482 1.557,-0.101 0.709,-0.273 0.15,-0.07 0.008,-0.005 0.846,-0.531 c 0.007,0.011 0.014,0.023 0.021,0.034 0.482,0.771 1.039,1.49 1.673,2.137 0.012,0.012 0.022,0.025 0.034,0.037 l -0.722,0.691 -0.121,0.117 -0.434,0.62 -0.463,1.49 0.41,0.358 1.415,-0.656 0.562,-0.511 0.115,-0.12 0.006,-0.008 0.597,-0.8 c 0.011,0.008 0.021,0.015 0.031,0.023 0.724,0.544 1.506,1.012 2.34,1.39 0.013,0.006 0.027,0.014 0.04,0.02 l -0.423,0.905 -0.074,0.158 -0.18,0.735 0.106,1.557 0.512,0.185 1.083,-1.123 0.339,-0.68 0.064,-0.153 0.002,-0.005 0.268,-0.963 c 0.013,0.004 0.027,0.007 0.04,0.01 0.862,0.242 1.762,0.389 2.689,0.44 0.013,0 0.025,10e-4 0.038,10e-4 l -0.068,0.997 -0.012,0.182 0.097,0.751 0.662,1.413 0.544,-0.012 0.604,-1.438 0.071,-0.757 0.004,-0.165 v -10e-4 l -0.097,-0.995 c 0.016,-0.002 0.033,-0.001 0.049,-0.003 0.916,-0.088 1.801,-0.277 2.648,-0.551 0.017,-0.006 0.032,-0.013 0.049,-0.018 l 0.297,0.955 0.051,0.163 0.362,0.665 1.127,1.078 0.503,-0.207 0.044,-1.56 -0.207,-0.731 -0.056,-0.156 -0.004,-0.007 -0.45,-0.892 c 0.012,-0.006 0.025,-0.012 0.037,-0.018 0.814,-0.409 1.581,-0.897 2.281,-1.468 0.013,-0.011 0.028,-0.02 0.042,-0.031 l 0.621,0.783 0.104,0.13 0.578,0.49 1.441,0.598 0.394,-0.375 -0.523,-1.47 -0.457,-0.607 -0.108,-0.125 -0.009,-0.008 -0.742,-0.669 c 0.009,-0.009 0.017,-0.018 0.025,-0.027 0.609,-0.672 1.149,-1.407 1.601,-2.2 0.008,-0.014 0.017,-0.026 0.024,-0.04 l 0.863,0.505 0.149,0.088 0.715,0.247 1.56,0.038 L 0.795,8.603 -0.223,7.42 -0.869,7.02 -1.015,6.942 -1.022,6.94 -1.955,6.584 C -1.95,6.571 -1.946,6.558 -1.941,6.546 -1.619,5.707 -1.388,4.825 -1.253,3.91 -1.251,3.897 -1.249,3.884 -1.247,3.871 L -0.261,4.03 -0.083,4.059 0.674,4.032 2.142,3.503 2.18,2.96 0.804,2.226 0.057,2.086 -0.104,2.066 h -0.003 l -0.997,0.005 c 0,-0.016 -0.002,-0.032 -0.003,-0.049 -0.003,-0.925 -0.114,-1.824 -0.309,-2.691 -0.003,-0.016 -0.008,-0.03 -0.012,-0.046 l 0.978,-0.208 0.171,-0.036 0.695,-0.299 0.383,-0.333 c 0.282,0.194 0.564,0.388 0.843,0.585 l -0.678,0.591 z"
             style="fill:#ffffff;fill-opacity:1;fill-rule:nonzero;stroke:none"
             id="path618" />
        </g>
        <g
           id="g620"
           transform="translate(129.3337,12.9252)">
          <path
             d="M 0,0 -0.007,-0.06 C 0.031,-0.044 0.07,-0.029 0.108,-0.013 0.086,-0.011 0.064,-0.009 0.043,-0.007 0.028,-0.005 0.014,-0.002 0,0"
             style="fill:#ffffff;fill-opacity:1;fill-rule:nonzero;stroke:none"
             id="path622" />
        </g>
        <g
           id="g624"
           transform="translate(143.5632,20.4208)">
          <path
             d="M 0,0 -0.93,0.366 C -0.935,0.353 -0.939,0.339 -0.945,0.326 -1.123,-0.13 -1.33,-0.572 -1.557,-1.001 c 0.526,0.327 1.048,0.66 1.566,0.998 l -0.003,0.001 z"
             style="fill:#ffffff;fill-opacity:1;fill-rule:nonzero;stroke:none"
             id="path626" />
        </g>
      </g>
    </g>
    <g
       id="g628">
      <g
         id="g630"
         clip-path="url(#clipPath634)">
        <g
           id="g636"
           transform="translate(113.6241,137.4047)">
          <path
             d="M 0,0 C -0.718,0 -1.3,0.582 -1.3,1.3 -1.3,2.018 -0.718,2.6 0,2.6 0.718,2.6 1.3,2.018 1.3,1.3 1.3,0.582 0.718,0 0,0 m 16.298,-4.854 c -0.361,0 -0.696,-0.108 -0.978,-0.291 L 8.5,1.675 H 1.76 C 1.587,2.489 0.865,3.1 0,3.1 c -0.994,0 -1.8,-0.806 -1.8,-1.8 0,-0.994 0.806,-1.8 1.8,-1.8 0.865,0 1.587,0.611 1.76,1.425 h 6.429 l 6.601,-6.601 c -0.183,-0.282 -0.292,-0.616 -0.292,-0.978 0,-0.994 0.806,-1.8 1.8,-1.8 0.994,0 1.8,0.806 1.8,1.8 0,0.995 -0.806,1.8 -1.8,1.8"
             style="fill:#ffffff;fill-opacity:1;fill-rule:nonzero;stroke:none"
             id="path638" />
        </g>
        <g
           id="g640"
           transform="translate(139.8182,153.3387)">
          <path
             d="M 0,0 C -0.718,0 -1.3,0.582 -1.3,1.3 -1.3,2.018 -0.718,2.6 0,2.6 0.718,2.6 1.3,2.018 1.3,1.3 1.3,0.582 0.718,0 0,0 m 0,3.1 c -0.865,0 -1.587,-0.611 -1.76,-1.425 h -14.628 -1.061 l -0.75,-0.75 -10.099,-10.099 h -34.468 c -0.173,0.814 -0.895,1.425 -1.76,1.425 -0.994,0 -1.8,-0.806 -1.8,-1.8 0,-0.994 0.806,-1.8 1.8,-1.8 0.865,0 1.587,0.611 1.76,1.425 h 33.718 1.061 l 0.75,0.75 10.099,10.099 H -1.76 C -1.587,0.111 -0.865,-0.5 0,-0.5 0.994,-0.5 1.8,0.306 1.8,1.3 1.8,2.294 0.994,3.1 0,3.1"
             style="fill:#ffffff;fill-opacity:1;fill-rule:nonzero;stroke:none"
             id="path642" />
        </g>
        <g
           id="g644"
           transform="translate(80.2982,148.2728)">
          <path
             d="M 0,0 C -0.718,0 -1.3,0.582 -1.3,1.3 -1.3,2.018 -0.718,2.6 0,2.6 0.718,2.6 1.3,2.018 1.3,1.3 1.3,0.582 0.718,0 0,0 M 1.76,1.675 C 1.587,2.489 0.865,3.1 0,3.1 c -0.994,0 -1.8,-0.806 -1.8,-1.8 0,-0.994 0.806,-1.8 1.8,-1.8 0.865,0 1.587,0.611 1.76,1.425 h 17.238 l 7.616,7.616 H 11.977 L 8.81,11.708 c 0.17,0.274 0.272,0.594 0.272,0.94 0,0.995 -0.806,1.8 -1.8,1.8 -0.994,0 -1.8,-0.805 -1.8,-1.8 0,-0.994 0.806,-1.8 1.8,-1.8 0.376,0 0.725,0.117 1.014,0.314 L 11.667,7.791 H 24.804 L 18.688,1.675 Z"
             style="fill:#ffffff;fill-opacity:1;fill-rule:nonzero;stroke:none"
             id="path646" />
        </g>
        <g
           id="g648"
           transform="translate(101.4863,160.1258)">
          <path
             d="M 0,0 C -0.718,0 -1.3,0.582 -1.3,1.3 -1.3,2.018 -0.718,2.6 0,2.6 0.718,2.6 1.3,2.018 1.3,1.3 1.3,0.582 0.718,0 0,0 M 16.102,6.564 11.213,1.675 H 1.76 C 1.587,2.489 0.865,3.1 0,3.1 c -0.994,0 -1.8,-0.806 -1.8,-1.8 0,-0.994 0.806,-1.8 1.8,-1.8 0.865,0 1.587,0.611 1.76,1.425 h 9.763 l 4.89,4.889 h 7.914 C 24.5,5 25.221,4.389 26.087,4.389 c 0.994,0 1.8,0.806 1.8,1.8 0,0.994 -0.806,1.8 -1.8,1.8 -0.866,0 -1.587,-0.611 -1.76,-1.425 z"
             style="fill:#ffffff;fill-opacity:1;fill-rule:nonzero;stroke:none"
             id="path650" />
        </g>
        <g
           id="g652"
           transform="translate(35.0031,154.8137)">
          <path
             d="m 0,0 8.704,8.704 h 16.882 c 0.172,-0.813 0.894,-1.425 1.759,-1.425 0.994,0 1.8,0.806 1.8,1.8 0,0.995 -0.806,1.801 -1.8,1.801 -0.865,0 -1.587,-0.612 -1.759,-1.426 H 8.394 L -0.311,0.75 H -5.196 C -5.429,0.499 -5.668,0.254 -5.899,0 Z"
             style="fill:#ffffff;fill-opacity:1;fill-rule:nonzero;stroke:none"
             id="path654" />
        </g>
        <g
           id="g656"
           transform="translate(77.9982,174.4597)">
          <path
             d="m 0,0 h 11.613 c 0.173,-0.814 0.894,-1.425 1.76,-1.425 0.994,0 1.8,0.806 1.8,1.8 0,0.994 -0.806,1.8 -1.8,1.8 -0.866,0 -1.587,-0.611 -1.76,-1.425 H 0.311 L -5.585,6.645 C -5.864,6.572 -6.141,6.495 -6.419,6.419 Z"
             style="fill:#ffffff;fill-opacity:1;fill-rule:nonzero;stroke:none"
             id="path658" />
        </g>
        <g
           id="g660"
           transform="translate(48.3367,139.4341)">
          <path
             d="m 0,0 5.663,5.663 h 9.565 l 7.692,-7.692 h 29.455 l 11.109,-11.11 c -0.183,-0.282 -0.292,-0.616 -0.292,-0.977 0,-0.995 0.806,-1.8 1.8,-1.8 0.994,0 1.8,0.805 1.8,1.8 0,0.994 -0.806,1.8 -1.8,1.8 -0.361,0 -0.696,-0.109 -0.978,-0.292 L 52.685,-1.279 H 23.231 L 15.539,6.413 H 5.352 L -0.311,0.75 H -30.016 C -30.162,0.503 -30.297,0.249 -30.441,0 Z"
             style="fill:#ffffff;fill-opacity:1;fill-rule:nonzero;stroke:none"
             id="path662" />
        </g>
        <g
           id="g664"
           transform="translate(82.7258,61.076)">
          <path
             d="m 0,0 c 0.718,0 1.3,-0.582 1.3,-1.3 0,-0.718 -0.582,-1.3 -1.3,-1.3 -0.718,0 -1.3,0.582 -1.3,1.3 0,0.718 0.582,1.3 1.3,1.3 M -25.334,-9.523 -9.668,-25.189 H 4.256 c 0.173,-0.814 0.894,-1.425 1.76,-1.425 0.994,0 1.8,0.806 1.8,1.8 0,0.994 -0.806,1.8 -1.8,1.8 -0.866,0 -1.587,-0.611 -1.76,-1.425 H -9.357 l -7.463,7.462 7.462,7.463 h 21.344 c 0.173,-0.814 0.894,-1.425 1.76,-1.425 0.994,0 1.8,0.806 1.8,1.8 0,0.994 -0.806,1.8 -1.8,1.8 -0.866,0 -1.587,-0.611 -1.76,-1.425 H -9.668 l -7.682,-7.682 -7.674,7.673 h -6.907 l 7.098,7.098 H -1.76 C -1.587,-2.489 -0.865,-3.1 0,-3.1 c 0.994,0 1.8,0.806 1.8,1.8 0,0.994 -0.806,1.8 -1.8,1.8 -0.865,0 -1.587,-0.611 -1.76,-1.425 h -23.384 l -7.848,-7.848 H -65.83 c 0.137,-0.252 0.279,-0.5 0.419,-0.75 z"
             style="fill:#ffffff;fill-opacity:1;fill-rule:nonzero;stroke:none"
             id="path666" />
        </g>
        <g
           id="g668"
           transform="translate(118.2904,173.5293)">
          <path
             d="m 0,0 c 0.718,0 1.3,-0.582 1.3,-1.3 0,-0.718 -0.582,-1.3 -1.3,-1.3 -0.718,0 -1.3,0.582 -1.3,1.3 0,0.718 0.582,1.3 1.3,1.3 m -78.095,-27.809 6.583,6.583 h 22.539 l 14.509,14.51 h 29.578 l 3.908,3.908 C -0.696,-2.991 -0.361,-3.1 0,-3.1 c 0.994,0 1.8,0.806 1.8,1.8 0,0.994 -0.806,1.8 -1.8,1.8 -0.994,0 -1.8,-0.806 -1.8,-1.8 0,-0.361 0.109,-0.696 0.292,-0.978 l -3.688,-3.688 h -29.578 l -14.51,-14.51 h -22.538 l -6.583,-6.583 h -17.47 c -0.179,-0.251 -0.366,-0.497 -0.542,-0.75 z"
             style="fill:#ffffff;fill-opacity:1;fill-rule:nonzero;stroke:none"
             id="path670" />
        </g>
        <g
           id="g672"
           transform="translate(73.1478,28.0645)">
          <path
             d="m 0,0 h 29.387 c 0.173,-0.814 0.894,-1.425 1.76,-1.425 0.994,0 1.8,0.806 1.8,1.8 0,0.994 -0.806,1.8 -1.8,1.8 -0.866,0 -1.587,-0.611 -1.76,-1.425 H 16.454 l 7.072,7.072 h 13.6 c 0.173,-0.814 0.895,-1.425 1.76,-1.425 0.994,0 1.8,0.806 1.8,1.8 0,0.994 -0.806,1.8 -1.8,1.8 -0.865,0 -1.587,-0.611 -1.76,-1.425 H 23.216 L 15.393,0.75 H 0.311 l -15.636,15.635 h -36.069 c 0.173,-0.251 0.35,-0.5 0.526,-0.75 h 35.233 z"
             style="fill:#ffffff;fill-opacity:1;fill-rule:nonzero;stroke:none"
             id="path674" />
        </g>
        <g
           id="g676"
           transform="translate(59.4601,29.7395)">
          <path
             d="m 0,0 c 0.718,0 1.3,-0.582 1.3,-1.3 0,-0.718 -0.582,-1.3 -1.3,-1.3 -0.718,0 -1.3,0.582 -1.3,1.3 0,0.718 0.582,1.3 1.3,1.3 M -17.535,-1.675 H -1.76 C -1.587,-2.489 -0.865,-3.1 0,-3.1 c 0.994,0 1.8,0.806 1.8,1.8 0,0.994 -0.806,1.8 -1.8,1.8 -0.865,0 -1.587,-0.611 -1.76,-1.425 h -15.464 l -7.921,7.921 h -6.565 c 0.217,-0.251 0.434,-0.502 0.654,-0.75 h 5.6 z"
             style="fill:#ffffff;fill-opacity:1;fill-rule:nonzero;stroke:none"
             id="path678" />
        </g>
        <g
           id="g680"
           transform="translate(101.9919,11.5665)">
          <path
             d="m 0,0 c 0.718,0 1.3,-0.582 1.3,-1.3 0,-0.718 -0.582,-1.3 -1.3,-1.3 -0.718,0 -1.3,0.582 -1.3,1.3 0,0.718 0.582,1.3 1.3,1.3 m -18.186,-0.925 0.75,-0.75 h 1.061 14.615 C -1.587,-2.489 -0.865,-3.1 0,-3.1 c 0.994,0 1.8,0.806 1.8,1.8 0,0.994 -0.806,1.8 -1.8,1.8 -0.865,0 -1.587,-0.611 -1.76,-1.425 H -17.125 L -27.964,9.914 h -29.165 c 0.368,-0.251 0.735,-0.503 1.107,-0.75 h 27.747 z"
             style="fill:#ffffff;fill-opacity:1;fill-rule:nonzero;stroke:none"
             id="path682" />
        </g>
      </g>
    </g>
  </g>
</svg>
